<?xml version="1.0" encoding="utf-8"?>
<!-- Generator: Adobe Illustrator 25.2.3, SVG Export Plug-In . SVG Version: 6.00 Build 0)  -->
<svg version="1.1" xmlns="http://www.w3.org/2000/svg" xmlns:xlink="http://www.w3.org/1999/xlink" x="0px" y="0px"
	 viewBox="0 0 666.4 579.1" style="enable-background:new 0 0 666.4 579.1;" xml:space="preserve">
<style type="text/css">
	.st0{fill:#32502F;}
	.st1{fill:none;stroke:#FFFFFF;stroke-width:50;stroke-miterlimit:10;}
	.st2{fill:#FFFFFF;stroke:#000000;stroke-width:50;stroke-miterlimit:10;}
	.st3{fill:none;stroke:#FFFFFF;stroke-width:50;stroke-linecap:square;stroke-miterlimit:10;}
</style>
<g id="Layer_2">
	<rect class="st0" width="666.4" height="579.1"/>
</g>
<g id="Layer_1">
	<g id="Layer_1_1_">
	</g>
	<g id="Layer_2_1_">
		<path class="st1" d="M152.7,290.1h360.2c69.4,0,126.1,56.8,126.1,126.1v11.2c0,69.4-56.8,126.1-126.1,126.1H152.7"/>
		<path class="st1" d="M332.8,290.1H152.7c-69.4,0-126.1-56.8-126.1-126.1v-11.2c0-69.4,56.8-126.1,126.1-126.1h180.1"/>
		<path class="st1" d="M332.8,26.6h180.1c69.4,0,126.1,56.8,126.1,126.1v11.2c0,69.4-56.8,126.1-126.1,126.1H332.8"/>
		<path class="st2" d="M161.4,431.9"/>
		<line class="st3" x1="332.8" y1="26.6" x2="332.8" y2="553.6"/>
	</g>
</g>
</svg>
